# xmcd
#
# Track frame offsets:
#	150
#	21762
#	35137
#	52742
#	85617
#	104337
#	121151
#	144375
#	163240
#	184088
#
# Disc length: 3227 seconds
#
# Revision: 1
# Processed by: cddbd v1.5.2PL0 Copyright (c) Steve Scherf et al.
# Submitted via: audiograbber 1.83.01
#
DISCID=7b0c990a
DTITLE=Allman Brothers Band - American Music Legends
DYEAR=2008
DGENRE=Blues
TTITLE0=Ramblin´ Man
TTITLE1=Midnight Rider
TTITLE2=Melissa
TTITLE3=Dreams
TTITLE4=Jessica
TTITLE5=Crazy Love
TTITLE6=Blue Sky
TTITLE7=Statesboro Blues   Live
TTITLE8=One Way Out   Live
TTITLE9=IN memory of Elizabeth Reed   Live
EXTD=
EXTT0=
EXTT1=
EXTT2=
EXTT3=
EXTT4=
EXTT5=
EXTT6=
EXTT7=
EXTT8=
EXTT9=
PLAYORDER=
